<?xml version="1.0" encoding="UTF-8" standalone="no"?>
<!-- Created with Inkscape (http://www.inkscape.org/) -->

<svg
   width="85.270615mm"
   height="26.678719mm"
   viewBox="0 0 85.270613 26.678718"
   version="1.1"
   id="svg5"
   inkscape:version="1.2.1 (9c6d41e410, 2022-07-14)"
   sodipodi:docname="logo.svg"
   xmlns:inkscape="http://www.inkscape.org/namespaces/inkscape"
   xmlns:sodipodi="http://sodipodi.sourceforge.net/DTD/sodipodi-0.dtd"
   xmlns="http://www.w3.org/2000/svg"
   xmlns:svg="http://www.w3.org/2000/svg">
  <sodipodi:namedview
     id="namedview7"
     pagecolor="#505050"
     bordercolor="#ffffff"
     borderopacity="1"
     inkscape:showpageshadow="0"
     inkscape:pageopacity="0"
     inkscape:pagecheckerboard="1"
     inkscape:deskcolor="#505050"
     inkscape:document-units="mm"
     showgrid="false"
     inkscape:zoom="1.4229444"
     inkscape:cx="329.24688"
     inkscape:cy="121.57889"
     inkscape:window-width="1920"
     inkscape:window-height="1012"
     inkscape:window-x="0"
     inkscape:window-y="0"
     inkscape:window-maximized="1"
     inkscape:current-layer="g21176" />
  <defs
     id="defs2">
    <rect
       x="41.46167"
       y="372.33936"
       width="719.0979"
       height="286.31454"
       id="rect1153" />
  </defs>
  <g
     inkscape:label="Layer 1"
     inkscape:groupmode="layer"
     id="layer1"
     transform="translate(1.1143628,-90.255568)">
    <g
       aria-label="Insurbia"
       transform="scale(0.26458333)"
       id="text1151"
       style="font-size:192px;line-height:1.25;font-family:Birthstone;-inkscape-font-specification:Birthstone;white-space:pre;shape-inside:url(#rect1153)">
      <g
         id="g21176">
        <g
           id="g21135"
           transform="matrix(0.48683695,0,0,0.48683695,-2.1613221,175.05193)"
           style="fill:#808080">
          <path
             d="M -4.2117649,341.12341 V 548.24194 H 72.529251 V 341.12341 Z M 17.196342,526.17494 H 8.9739291 V 509.0263 h 8.2224129 z m 0,-30.97616 H 8.9739291 v -17.13959 h 8.2224129 z m 0,-30.96711 H 8.9739291 v -17.14411 h 8.2224129 z m 0,-30.98066 H 8.9739291 v -17.14866 h 8.2224129 z m 0,-30.97616 H 8.9739291 V 385.1262 h 8.2224129 z m 0,-30.97615 H 8.9739291 V 354.15005 H 17.196342 Z M 31.240894,526.17494 H 23.01848 V 509.0263 h 8.222414 z m 0,-30.97616 H 23.01848 v -17.13959 h 8.222414 z m 0,-30.96711 H 23.01848 v -17.14411 h 8.222414 z m 0,-30.98066 H 23.01848 v -17.14866 h 8.222414 z m 0,-30.97616 H 23.01848 V 385.1262 h 8.222414 z m 0,-30.97615 H 23.01848 v -17.14865 h 8.222414 z M 45.289965,526.17494 H 37.067552 V 509.0263 h 8.222413 z m 0,-30.97616 h -8.222413 v -17.13959 h 8.222413 z m 0,-30.96711 h -8.222413 v -17.14411 h 8.222413 z m 0,-30.98066 h -8.222413 v -17.14866 h 8.222413 z m 0,-30.97616 H 37.067552 V 385.1262 h 8.222413 z m 0,-30.97615 h -8.222413 v -17.14865 h 8.222413 z m 14.04455,154.87624 H 51.112102 V 509.0263 h 8.222413 z m 0,-30.97616 h -8.222413 v -17.13959 h 8.222413 z m 0,-30.96711 h -8.222413 v -17.14411 h 8.222413 z m 0,-30.98066 h -8.222413 v -17.14866 h 8.222413 z m 0,-30.97616 H 51.112102 V 385.1262 h 8.222413 z m 0,-30.97615 h -8.222413 v -17.14865 h 8.222413 z"
             id="path18831"
             style="stroke-width:4.5225;fill:#808080" />
          <path
             d="m 92.725122,490.31879 c 0,19.2 0,38.4 0,57.6 h 20.351998 v -57.6 0 c 0,-9.792 7.872,-17.664 17.472,-17.664 9.6,0 17.472,7.872 17.472,17.664 v 57.6 h 20.544 v -57.6 h -0.192 c 0,-20.928 -17.088,-38.016 -37.824,-38.016 -9.6,0 -18.432,3.648 -25.152,9.6 l -12.671998,-9.6 z"
             style="font-family:Beorita;-inkscape-font-specification:Beorita;fill:#808080"
             id="path2093" />
          <path
             d="m 228.85329,527.56679 h -31.488 l -15.36,20.544 h 46.848 c 15.936,0 28.992,-13.248 28.992,-29.184 0,-15.936 -13.056,-28.992 -28.992,-28.992 h -17.856 c -4.8,0 -8.64,-3.84 -8.64,-8.64 0,-4.608 3.84,-8.64 8.64,-8.64 h 31.296 l 15.552,-20.352 h -46.848 c -16.128,0 -28.992,13.056 -28.992,28.992 0,16.128 13.056,28.992 28.992,28.992 h 17.856 c 4.608,0 8.448,4.032 8.448,8.64 0,4.8 -3.84,8.64 -8.448,8.64 z"
             style="font-family:Beorita;-inkscape-font-specification:Beorita;fill:#808080"
             id="path2090" />
          <path
             d="m 271.09317,510.09479 c 0,20.928 17.088,37.824 37.824,37.824 9.6,0 18.624,-3.456 25.152,-9.6 l 12.864,9.6 c 0,-19.2 0,-76.416 0,-95.616 h -20.544 v 57.792 0 c 0,9.6 -7.872,17.472 -17.472,17.472 -9.6,0 -17.472,-7.872 -17.472,-17.472 v -57.792 h -20.352 z"
             style="font-family:Beorita;-inkscape-font-specification:Beorita;fill:#808080"
             id="path2087" />
          <path
             d="m 366.32534,452.30279 c 0,31.872 0,63.744 0,95.616 h 20.352 v -57.6 0 c 0,-9.792 7.872,-17.664 17.472,-17.664 8.064,0 15.168,5.76 16.896,13.44 h 20.736 c -2.112,-19.008 -18.24,-33.792 -37.632,-33.792 -9.6,0 -18.432,3.648 -25.152,9.6 z"
             style="font-family:Beorita;-inkscape-font-specification:Beorita;fill:#808080"
             id="path2084" />
          <path
             d="m 466.35733,538.31879 c 6.72,6.144 15.552,9.6 25.152,9.6 20.736,0 37.824,-16.896 37.824,-37.824 v -19.968 c 0,-20.736 -17.088,-37.824 -37.824,-37.824 -6.336,0 -12.288,1.536 -17.472,4.224 v -43.008 h -20.352 v 134.4 z m 42.624,-28.224 c 0,9.6 -7.872,17.472 -17.472,17.472 -9.6,0 -17.472,-7.872 -17.472,-17.472 v -19.776 c 0,-9.792 7.872,-17.664 17.472,-17.664 9.6,0 17.472,7.872 17.472,17.664 z"
             style="font-family:Beorita;-inkscape-font-specification:Beorita;fill:#808080"
             id="path2081" />
          <path
             d="m 566.00534,434.06279 v -20.544 h -20.352 v 20.544 z m -20.352,18.24 v 95.616 h 20.352 v -95.616 z"
             style="font-family:Beorita;-inkscape-font-specification:Beorita;fill:#808080"
             id="path2078" />
          <path
             d="m 645.10922,538.31879 12.672,9.6 v -57.6 c 0,-20.928 -17.088,-38.016 -37.824,-38.016 -20.928,0 -37.824,17.088 -37.824,38.016 v 19.776 c 0,20.928 16.896,37.824 37.824,37.824 9.6,0 18.432,-3.456 25.152,-9.6 z m -7.68,-28.224 c 0,9.6 -7.872,17.472 -17.472,17.472 -9.6,0 -17.472,-7.872 -17.472,-17.472 v -19.776 c 0,-9.792 7.872,-17.664 17.472,-17.664 9.6,0 17.472,7.872 17.472,17.664 z"
             style="font-family:Beorita;-inkscape-font-specification:Beorita;fill:#808080"
             id="path2075" />
        </g>
      </g>
    </g>
  </g>
</svg>
